<?xml version="1.0" encoding="UTF-8"?>
<svg id="Ebene_1" data-name="Ebene 1" xmlns="http://www.w3.org/2000/svg" viewBox="0 0 100 100">
  <defs>
    <style>
      .cls-1 {
        fill: #ff5959;
      }
    </style>
  </defs>
  <path class="cls-1" d="M74.5,64.27c7.63-6.78,12.46-16.66,12.46-27.65C86.96,16.24,70.38,0,50,0S13.05,16.24,13.05,36.63c0,10.99,4.83,20.87,12.46,27.65-10.96,7.72-18.13,21.33-18.13,35.73h17.14c0-14.05,11.43-27.23,25.48-27.23s25.48,13.18,25.48,27.23h17.14c0-14.4-7.17-28-18.13-35.73h0ZM50.01,16.98c10.92,0,19.81,8.72,19.81,19.64s-8.89,19.62-19.81,19.62-19.81-8.69-19.81-19.62,8.89-19.64,19.81-19.64Z"/>
</svg>